<svg width="101" height="101" viewBox="0 0 101 101" fill="none" xmlns="http://www.w3.org/2000/svg">
<path d="M49.9996 96.4C24.3996 96.4 3.59961 75.6 3.59961 50C3.59961 24.4 24.3996 3.59998 49.9996 3.59998C75.5996 3.59998 96.3996 24.4 96.3996 50C96.3996 75.6 75.5996 96.4 49.9996 96.4ZM49.9996 6.59998C26.0996 6.59998 6.59961 26.1 6.59961 50C6.59961 73.9 26.0996 93.4 49.9996 93.4C73.8996 93.4 93.3996 73.9 93.3996 50C93.3996 26.1 73.8996 6.59998 49.9996 6.59998Z" fill="#FFE11E"/>
<path d="M32.6 64.2C27.8 64.2 24 58.6 24 51.4C24 44.2 27.8 38.6 32.6 38.6C37.4 38.6 41.2 44.2 41.2 51.4C41.2 58.6 37.5 64.2 32.6 64.2ZM32.6 41.6C29.6 41.6 27 46.1 27 51.4C27 56.7 29.6 61.2 32.6 61.2C35.6 61.2 38.2 56.7 38.2 51.4C38.2 46.1 35.7 41.6 32.6 41.6Z" fill="#FFE11E"/>
<path d="M51.1996 64.2C46.3996 64.2 42.5996 58.6 42.5996 51.4C42.5996 44.2 46.3996 38.6 51.1996 38.6C55.9996 38.6 59.7996 44.2 59.7996 51.4C59.7996 58.6 55.9996 64.2 51.1996 64.2ZM51.1996 41.6C48.1996 41.6 45.5996 46.1 45.5996 51.4C45.5996 56.7 48.1996 61.2 51.1996 61.2C54.1996 61.2 56.7996 56.7 56.7996 51.4C56.7996 46.1 54.2996 41.6 51.1996 41.6Z" fill="#FFE11E"/>
<path d="M21.1 64.2C20.3 64.2 19.6 63.5 19.6 62.7V43.7L16.1 46.4C15.4 46.9 14.5 46.8 14 46.1C13.5 45.4 13.6 44.5 14.3 44L20.2 39.4C20.7 39 21.3 39 21.8 39.2C22.3 39.5 22.6 40 22.6 40.5V62.6C22.6 63.5 21.9 64.2 21.1 64.2Z" fill="#FFE11E"/>
<path d="M66.8 64C66.5 64 66.2 63.9 66 63.7C65.3 63.2 65.1 62.3 65.6 61.6L80.2 39.9C80.7 39.2 81.6 39 82.3 39.5C83 40 83.2 40.9 82.7 41.6L68 63.3C67.7 63.8 67.2 64 66.8 64Z" fill="#FFE11E"/>
<path d="M68.4994 50.4C65.1994 50.4 62.3994 47.6999 62.3994 44.2999C62.3994 40.9999 65.0994 38.2 68.4994 38.2C71.7994 38.2 74.5994 40.8999 74.5994 44.2999C74.5994 47.6999 71.7994 50.4 68.4994 50.4ZM68.4994 41.2999C66.7994 41.2999 65.3994 42.7 65.3994 44.4C65.3994 46.1 66.7994 47.5 68.4994 47.5C70.1994 47.5 71.5994 46.1 71.5994 44.4C71.5994 42.7 70.1994 41.2999 68.4994 41.2999Z" fill="#FFE11E"/>
<path d="M81.1996 62.9C77.8996 62.9 75.0996 60.1999 75.0996 56.7999C75.0996 53.4999 77.7996 50.7 81.1996 50.7C84.4996 50.7 87.2996 53.3999 87.2996 56.7999C87.2996 60.1999 84.5996 62.9 81.1996 62.9ZM81.1996 53.7999C79.4996 53.7999 78.0996 55.2 78.0996 56.9C78.0996 58.6 79.4996 60 81.1996 60C82.8996 60 84.2996 58.6 84.2996 56.9C84.2996 55.1 82.8996 53.7999 81.1996 53.7999Z" fill="#FFE11E"/>
</svg>
