<svg width="101" height="101" viewBox="0 0 101 101" fill="none" xmlns="http://www.w3.org/2000/svg">
<path d="M38.5214 47.039C37.3044 47.839 35.9254 48.747 34.3984 49.947C34.2174 50.078 29.9554 53.196 28.2104 56.106C26.4574 59.031 25.8874 63.828 25.8634 64.031C25.8144 64.456 25.9494 64.882 26.2344 65.201C26.5194 65.52 26.9264 65.703 27.3544 65.703H46.0644C46.8934 65.703 47.5644 65.031 47.5644 64.203C47.5644 63.375 46.8934 62.703 46.0644 62.703H29.1144C29.3984 61.222 29.9264 59.079 30.7834 57.649C31.9704 55.67 35.0684 53.17 36.2074 52.34C37.6794 51.184 39.0024 50.313 40.1704 49.545C43.2284 47.533 45.6434 45.944 45.6434 41.871C45.6434 36.515 41.2854 32.157 35.9294 32.157C30.5714 32.157 26.2114 36.514 26.2114 41.871C26.2114 42.7 26.8824 43.371 27.7114 43.371C28.5404 43.371 29.2114 42.7 29.2114 41.871C29.2114 38.169 32.2254 35.157 35.9294 35.157C39.6314 35.157 42.6434 38.169 42.6434 41.871C42.6434 44.215 41.6524 44.978 38.5214 47.039Z" fill="#FFE11E"/>
<path d="M64.3954 65.877C65.2234 65.877 65.8954 65.205 65.8954 64.377V57.305H70.2894C71.1174 57.305 71.7894 56.633 71.7894 55.805C71.7894 54.977 71.1174 54.305 70.2894 54.305H65.8954V33.832C65.8954 33.167 65.4574 32.582 64.8204 32.394C64.1834 32.206 63.4964 32.46 63.1354 33.018L48.9344 54.99C48.6364 55.452 48.6144 56.039 48.8764 56.521C49.1384 57.003 49.6444 57.304 50.1934 57.304H62.8954V64.376C62.8954 65.205 63.5674 65.877 64.3954 65.877ZM52.9494 54.305L62.8954 38.916V54.305H52.9494Z" fill="#FFE11E"/>
<path d="M98.4178 43.315C97.7848 42.781 96.8368 42.862 96.3048 43.495L93.6698 46.621C91.9318 22.622 71.8638 3.62402 47.4288 3.62402C21.8568 3.62402 1.05176 24.428 1.05176 49.999C1.05176 75.571 21.8568 96.374 47.4288 96.374C63.8098 96.374 78.6578 87.994 87.1458 73.958C87.5748 73.249 87.3478 72.327 86.6388 71.898C85.9308 71.468 85.0078 71.696 84.5788 72.405C76.6388 85.535 62.7508 93.374 47.4288 93.374C23.5108 93.374 4.05176 73.916 4.05176 49.999C4.05176 26.082 23.5108 6.62402 47.4288 6.62402C70.4008 6.62402 89.2488 24.576 90.7048 47.186L87.3448 44.38C86.7068 43.848 85.7628 43.935 85.2318 44.57C84.7008 45.206 84.7858 46.152 85.4208 46.683L91.3878 51.666C91.6688 51.9 92.0098 52.015 92.3488 52.015C92.7758 52.015 93.2008 51.833 93.4958 51.482L98.5978 45.43C99.1318 44.796 99.0518 43.849 98.4178 43.315Z" fill="#FFE11E"/>
</svg>
