<svg width="101" height="101" viewBox="0 0 101 101" fill="none" xmlns="http://www.w3.org/2000/svg">
<path d="M92.1547 30.246V30.242C92.1547 30.238 92.1537 30.235 92.1537 30.231C92.1527 30.123 92.1377 30.015 92.1137 29.909C92.1057 29.875 92.0947 29.843 92.0847 29.81C92.0627 29.737 92.0347 29.665 92.0007 29.594C91.9827 29.557 91.9637 29.52 91.9427 29.485C91.9287 29.461 91.9187 29.434 91.9037 29.411C91.8767 29.371 91.8437 29.338 91.8137 29.301C91.7897 29.271 91.7677 29.241 91.7417 29.213C91.6647 29.131 91.5817 29.058 91.4907 28.997C91.4897 28.996 91.4887 28.995 91.4877 28.994L91.4867 28.993C91.4837 28.991 91.4807 28.989 91.4787 28.987L55.1087 4.78201C54.6047 4.44701 53.9497 4.44701 53.4457 4.78201L40.6437 13.317L40.6427 13.318L28.8797 21.159C28.7187 21.23 28.5677 21.327 28.4377 21.454L8.5247 34.73C8.4287 34.793 8.3407 34.871 8.2587 34.957C8.2327 34.985 8.2107 35.015 8.1867 35.045C8.1567 35.082 8.1237 35.114 8.0967 35.155C8.0807 35.178 8.0717 35.204 8.0577 35.228C8.0367 35.264 8.0167 35.301 7.9987 35.34C7.9657 35.409 7.9387 35.48 7.9167 35.552C7.9057 35.587 7.8947 35.62 7.8867 35.655C7.8637 35.757 7.8497 35.86 7.8487 35.964C7.8487 35.972 7.8457 35.979 7.8457 35.986V35.994V35.995V69.756C7.8457 70.258 8.0967 70.727 8.5147 71.005L44.8917 95.217C44.8967 95.22 44.9017 95.221 44.9067 95.224C45.0117 95.292 45.1267 95.343 45.2467 95.384C45.2767 95.394 45.3057 95.404 45.3357 95.412C45.4597 95.445 45.5877 95.468 45.7217 95.468C45.8557 95.468 45.9837 95.445 46.1077 95.411C46.1377 95.403 46.1677 95.393 46.1967 95.383C46.3197 95.342 46.4377 95.29 46.5437 95.22C46.5467 95.218 46.5497 95.217 46.5527 95.216L46.5587 95.212C46.5597 95.212 46.5597 95.211 46.5607 95.211L91.4847 65.261C91.9017 64.983 92.1527 64.515 92.1527 64.013V30.253C92.1547 30.251 92.1547 30.248 92.1547 30.246ZM54.2787 7.83201L87.9487 30.243L77.2997 37.343L44.1307 14.598L54.2787 7.83201ZM45.7227 58.395L12.0507 35.984L29.4957 24.354L62.6657 47.099L45.7227 58.395ZM41.4407 16.391L74.6097 39.136L65.3547 45.306L32.1847 22.561L41.4407 16.391ZM66.8117 47.94L75.7167 42.003L75.3997 56.137L66.8117 61.771V47.94ZM10.8457 38.785L44.2227 61.001V91.167L10.8457 68.952V38.785ZM47.2227 91.165V61L63.8117 49.94V64.549C63.8117 65.1 64.1147 65.607 64.5987 65.869C64.8227 65.989 65.0677 66.049 65.3117 66.049C65.5987 66.049 65.8857 65.967 66.1347 65.803L77.7047 58.212C78.1167 57.941 78.3697 57.485 78.3817 56.991L78.7627 39.972L89.1547 33.044V63.21L47.2227 91.165Z" fill="#FFE11E"/>
<path d="M41.4784 68.453C41.9634 68.453 42.4394 68.219 42.7284 67.784C43.1874 67.095 43.0004 66.163 42.3114 65.704L25.1254 54.265C24.4354 53.806 23.5034 53.992 23.0454 54.683C22.5864 55.372 22.7734 56.304 23.4624 56.763L40.6494 68.202C40.9044 68.372 41.1934 68.453 41.4784 68.453Z" fill="#FFE11E"/>
<path d="M42.3121 73.529L32.4701 66.978C31.7801 66.519 30.8481 66.706 30.3901 67.396C29.9311 68.085 30.1181 69.017 30.8071 69.476L40.6491 76.027C40.9041 76.197 41.1931 76.278 41.4791 76.278C41.9641 76.278 42.4401 76.044 42.7291 75.609C43.1881 74.919 43.0011 73.988 42.3121 73.529Z" fill="#FFE11E"/>
</svg>
