<svg width="101" height="101" viewBox="0 0 101 101" fill="none" xmlns="http://www.w3.org/2000/svg">
<path d="M89.3815 19.52H10.6215C6.63846 19.52 3.39746 22.761 3.39746 26.744V31.572V41.976V73.257C3.39746 77.24 6.63846 80.48 10.6215 80.48H89.3815C93.3645 80.48 96.6045 77.24 96.6045 73.257V41.976V31.572V26.744C96.6045 22.761 93.3645 19.52 89.3815 19.52ZM6.39646 26.744C6.39746 24.414 8.29146 22.52 10.6205 22.52H89.3805C91.7095 22.52 93.6035 24.415 93.6035 26.744V30.072H6.39646V26.744ZM93.6045 73.256C93.6045 75.584 91.7095 77.479 89.3815 77.479H10.6215C8.29246 77.479 6.39746 75.584 6.39746 73.256V43.475H93.6045V73.256ZM93.6045 40.475H6.39746V33.071H93.6045V40.475Z" fill="#FFE11E"/>
<path d="M17.894 71.566C20.779 71.566 23.125 69.221 23.125 66.339C23.125 63.455 20.779 61.108 17.894 61.108C15.011 61.108 12.665 63.455 12.665 66.339C12.665 69.221 15.011 71.566 17.894 71.566ZM17.894 64.108C19.124 64.108 20.125 65.109 20.125 66.339C20.125 67.567 19.124 68.566 17.894 68.566C16.665 68.566 15.665 67.567 15.665 66.339C15.665 65.109 16.665 64.108 17.894 64.108Z" fill="#FFE11E"/>
<path d="M29.0801 68.015H71.3441C72.1731 68.015 72.8441 67.344 72.8441 66.515C72.8441 65.686 72.1731 65.015 71.3441 65.015H29.0801C28.2511 65.015 27.5801 65.686 27.5801 66.515C27.5801 67.344 28.2511 68.015 29.0801 68.015Z" fill="#FFE11E"/>
</svg>
