<svg width="101" height="101" viewBox="0 0 101 101" fill="none" xmlns="http://www.w3.org/2000/svg">
<path d="M94.224 18.366C93.94 18.034 93.524 17.843 93.086 17.843H22.308L19.422 8.17098C19.231 7.53498 18.647 7.09998 17.984 7.09998H6.91504C6.08604 7.09998 5.41504 7.77098 5.41504 8.59998C5.41504 9.42898 6.08604 10.1 6.91504 10.1H16.866L35.1 71.204C35.102 71.211 35.108 71.217 35.11 71.224L37.375 78.928C35.945 80.349 35.059 82.316 35.059 84.485C35.059 88.815 38.58 92.338 42.907 92.338C47.095 92.338 50.516 89.03 50.727 84.887H70.386C70.385 84.942 70.378 84.996 70.378 85.052C70.378 89.378 73.897 92.898 78.222 92.898C82.547 92.898 86.067 89.378 86.067 85.052C86.067 80.726 82.547 77.206 78.222 77.206C75.023 77.206 72.27 79.134 71.051 81.887H50.299C49.915 80.792 49.296 79.785 48.451 78.94C46.97 77.459 45.002 76.642 42.91 76.642C42.909 76.642 42.908 76.642 42.908 76.642C41.879 76.642 40.898 76.846 39.997 77.208L38.547 72.275H85.22C85.961 72.275 86.591 71.734 86.702 71.002L94.569 19.569C94.635 19.137 94.509 18.698 94.224 18.366ZM78.222 80.207C80.893 80.207 83.067 82.381 83.067 85.053C83.067 87.725 80.893 89.899 78.222 89.899C75.551 89.899 73.378 87.725 73.378 85.053C73.378 82.381 75.551 80.207 78.222 80.207ZM42.908 79.643H42.909C44.2 79.643 45.414 80.147 46.328 81.062C47.243 81.977 47.746 83.194 47.746 84.487C47.746 87.163 45.575 89.34 42.906 89.34C40.233 89.34 38.058 87.163 38.058 84.487C38.059 81.816 40.234 79.643 42.908 79.643ZM83.931 69.276H37.664L34.828 59.628C34.792 59.506 34.738 59.395 34.676 59.29L23.203 20.843H91.339L83.931 69.276Z" fill="#FFE11E"/>
</svg>
