<svg width="101" height="101" viewBox="0 0 101 101" fill="none" xmlns="http://www.w3.org/2000/svg">
<path d="M49.9996 49.5C29.0996 49.5 12.0996 66.5 12.0996 87.4C12.0996 88.2 12.7996 88.9 13.5996 88.9H33.4996C36.7996 94.4 42.7996 98.2 49.5996 98.2C56.3996 98.2 62.4996 94.5 65.6996 88.9H86.2996C87.0996 88.9 87.7996 88.2 87.7996 87.4C87.8996 66.5 70.8996 49.5 49.9996 49.5ZM15.1996 85.9C15.6996 74.3 21.7996 64.2 30.8996 58.2V79.4C30.8996 81.7 31.2996 83.8 32.0996 85.9H15.1996ZM49.5996 95.1C40.8996 95.1 33.8996 88 33.8996 79.4V56.4C38.6996 53.9 44.1996 52.4 49.9996 52.4C55.4996 52.4 60.6996 53.7 65.3996 56V79.3C65.3996 81.9 64.7996 84.3 63.6996 86.4C63.5996 86.5 63.5996 86.6 63.4996 86.7C60.7996 91.8 55.5996 95.1 49.5996 95.1ZM67.1996 85.9C67.8996 83.9 68.3996 81.7 68.3996 79.4V57.7C77.8996 63.6 84.3996 74 84.8996 85.8H67.1996V85.9Z" fill="#FFE11E"/>
<path d="M49.3996 45.4C61.3996 45.4 71.1996 35.6 71.1996 23.6C71.1996 23.1 71.1996 22.6 71.0996 22.1H79.5996C80.3996 22.1 81.0996 21.4 81.0996 20.6C81.0996 19.8 80.3996 19.1 79.5996 19.1H70.6996C68.5996 9.30002 59.7996 1.90002 49.3996 1.90002C37.3996 1.90002 27.5996 11.7 27.5996 23.7C27.5996 35.6 37.3996 45.4 49.3996 45.4ZM49.3996 4.90002C58.1996 4.90002 65.5996 11 67.5996 19.2H31.1996C33.1996 11 40.5996 4.90002 49.3996 4.90002ZM30.6996 22.2H67.9996C67.9996 22.7 68.0996 23.2 68.0996 23.7C68.0996 34 59.6996 42.5 49.2996 42.5C38.8996 42.5 30.5996 34 30.5996 23.6C30.5996 23.1 30.5996 22.6 30.6996 22.2Z" fill="#FFE11E"/>
</svg>
