<svg width="27" height="27" viewBox="0 0 27 27" fill="#2f2f2f" xmlns="http://www.w3.org/2000/svg">
<g clip-path="url(#clip0)">
<path d="M13.5002 -0.0288086C6.04064 -0.0288086 -0.0292969 6.03944 -0.0292969 13.4999C-0.0292969 20.9603 6.04064 27.0286 13.5002 27.0286C20.9598 27.0286 27.0298 20.9603 27.0298 13.4999C27.0298 6.03944 20.9598 -0.0288086 13.5002 -0.0288086ZM13.5002 26.1274C6.53761 26.1274 0.873516 20.4625 0.873516 13.4999C0.873516 6.53725 6.53761 0.872316 13.5002 0.872316C20.4629 0.872316 26.127 6.53725 26.127 13.4999C26.127 20.4625 20.4629 26.1274 13.5002 26.1274Z" fill="#2f2f2f"/>
<path d="M16.4535 5.90616H14.2024C11.3353 5.87747 10.9691 7.65188 10.9691 9.57226V10.9687H9.7035C9.6463 10.961 9.5881 10.9667 9.53343 10.9852C9.47877 11.0037 9.4291 11.0345 9.38829 11.0753C9.34748 11.1161 9.31663 11.1658 9.29813 11.2205C9.27963 11.2751 9.27398 11.3333 9.28163 11.3905V13.9218C9.27398 13.979 9.27963 14.0372 9.29813 14.0919C9.31663 14.1465 9.34748 14.1962 9.38829 14.237C9.4291 14.2778 9.47877 14.3087 9.53343 14.3272C9.5881 14.3457 9.6463 14.3513 9.7035 14.3437H10.9691V20.6718C10.9621 20.7291 10.9683 20.7872 10.9871 20.8418C11.006 20.8964 11.0371 20.9459 11.0781 20.9866C11.119 21.0273 11.1687 21.0581 11.2234 21.0767C11.2781 21.0952 11.3363 21.101 11.3935 21.0937H13.9712C14.2201 21.1223 14.4218 20.9207 14.3424 20.6718L14.3441 14.3437H16.4535C16.5107 14.3513 16.5689 14.3457 16.6236 14.3272C16.6782 14.3087 16.7279 14.2778 16.7687 14.237C16.8095 14.1962 16.8404 14.1465 16.8589 14.0919C16.8774 14.0372 16.883 13.979 16.8754 13.9218V11.3905C16.883 11.3333 16.8774 11.2751 16.8589 11.2205C16.8404 11.1658 16.8095 11.1161 16.7687 11.0753C16.7279 11.0345 16.6782 11.0037 16.6236 10.9852C16.5689 10.9667 16.5107 10.961 16.4535 10.9687H14.3416L14.3441 9.70304C14.426 9.16388 14.426 9.25163 14.9263 9.28116H16.4358C16.5531 9.25501 16.6779 9.26935 16.7657 9.18413C16.8534 9.09891 16.9041 8.98247 16.8745 8.85929V6.32804C16.8823 6.27088 16.8768 6.21269 16.8584 6.15802C16.84 6.10334 16.8093 6.05365 16.7685 6.01282C16.7278 5.97199 16.6781 5.94112 16.6235 5.92262C16.5688 5.90412 16.5107 5.89849 16.4535 5.90616ZM16.0021 8.39016L14.944 8.34966C13.6337 8.34966 13.524 9.06094 13.524 9.7891L13.5206 11.3888C13.5205 11.4481 13.5321 11.5068 13.5547 11.5615C13.5773 11.6163 13.6104 11.6661 13.6523 11.708C13.6941 11.7499 13.7439 11.7832 13.7986 11.8059C13.8533 11.8286 13.9119 11.8403 13.9712 11.8403H16.0316V13.4704H13.9729C13.8533 13.4704 13.7386 13.5178 13.654 13.6023C13.5694 13.6868 13.5217 13.8014 13.5215 13.9209L13.5206 20.2499H11.8129V13.9218C11.8129 13.6729 11.6433 13.4712 11.3935 13.4712H10.1254V11.8411H11.3935C11.4527 11.8412 11.5114 11.8296 11.5661 11.807C11.6208 11.7844 11.6706 11.7513 11.7125 11.7095C11.7968 11.6243 11.812 11.5095 11.812 11.3897V9.57141C11.812 7.67972 12.1943 6.7786 14.2015 6.7786H16.0013V8.39016H16.0021Z" fill="#2f2f2f"/>
</g>
<defs>
<clipPath id="clip0">
<rect width="27" height="27" fill="white"/>
</clipPath>
</defs>
</svg>
