<svg width="101" height="101" viewBox="0 0 101 101" fill="none" xmlns="http://www.w3.org/2000/svg">
<path d="M69.5496 58.903C69.5446 58.903 69.5386 58.903 69.5336 58.903C69.0106 58.897 68.5286 58.62 68.2606 58.171L54.0026 34.226C53.9626 34.159 53.9286 34.09 53.8996 34.018C52.1216 31.099 51.1836 27.754 51.1836 24.325C51.2016 14.014 59.5976 5.63599 69.9036 5.63599C69.9116 5.63599 69.9186 5.63599 69.9266 5.63599C74.9296 5.64299 79.6266 7.59699 83.1526 11.137C86.6766 14.674 88.6126 19.376 88.6056 24.375C88.6056 27.753 87.6716 31.08 85.9016 34.017C85.8676 34.113 85.8226 34.205 85.7676 34.294L70.8226 58.199C70.5466 58.636 70.0656 58.903 69.5496 58.903ZM56.7186 32.923L69.5806 54.524L83.0566 32.969C83.0906 32.877 83.1336 32.787 83.1866 32.702C84.7686 30.175 85.6046 27.295 85.6046 24.374C85.6046 24.373 85.6046 24.373 85.6046 24.372C85.6116 20.172 83.9856 16.224 81.0266 13.253C78.0666 10.282 74.1226 8.64199 69.9226 8.63499C69.9166 8.63499 69.9096 8.63499 69.9026 8.63499C61.2476 8.63499 54.1976 15.67 54.1836 24.327C54.1836 27.281 55.0146 30.163 56.5856 32.659C56.6396 32.742 56.6836 32.831 56.7186 32.923Z" fill="#FFE11E"/>
<path d="M69.9085 31.352C69.9035 31.352 69.8985 31.352 69.8925 31.352C67.7805 31.352 65.7915 30.527 64.2965 29.029C62.7995 27.529 61.9775 25.537 61.9815 23.418C61.9835 21.306 62.8095 19.319 64.3075 17.825C65.8035 16.334 67.7895 15.513 69.9025 15.513C69.9045 15.513 69.9075 15.513 69.9105 15.513C74.2755 15.518 77.8245 19.076 77.8205 23.445C77.8185 25.56 76.9925 27.548 75.4945 29.042C73.9995 30.532 72.0165 31.352 69.9085 31.352ZM69.9015 18.513C68.5895 18.513 67.3545 19.023 66.4255 19.95C65.4955 20.877 64.9825 22.111 64.9815 23.423C64.9795 24.74 65.4905 25.978 66.4205 26.91C67.3485 27.84 68.5835 28.352 69.8955 28.352C69.8985 28.352 69.9015 28.352 69.9055 28.352C71.2175 28.352 72.4485 27.843 73.3765 26.918C74.3065 25.991 74.8195 24.756 74.8205 23.443C74.8225 20.729 72.6185 18.517 69.9065 18.514C69.9055 18.513 69.9035 18.513 69.9015 18.513ZM76.3205 23.444H76.3305H76.3205Z" fill="#FFE11E"/>
<path d="M94.3987 80.181H4.54067C4.03667 80.181 3.56667 79.928 3.28867 79.507C3.01167 79.087 2.96367 78.555 3.16167 78.091L19.5067 39.849C19.7427 39.297 20.2857 38.938 20.8857 38.938H59.4537C60.2827 38.938 60.9537 39.609 60.9537 40.438C60.9537 41.267 60.2827 41.938 59.4537 41.938H21.8757L6.81267 77.18H92.1257L77.5277 43.03C77.2017 42.268 77.5557 41.387 78.3177 41.061C79.0767 40.736 79.9607 41.088 80.2867 41.851L95.7777 78.09C95.9757 78.554 95.9277 79.086 95.6507 79.506C95.3727 79.928 94.9027 80.181 94.3987 80.181Z" fill="#FFE11E"/>
<path d="M69.7264 79.912C68.9744 79.912 68.3254 79.348 68.2384 78.582C68.2294 78.508 67.2714 71.128 56.9384 69.375C55.9774 69.212 54.4444 69.063 52.6684 68.892C42.8894 67.946 33.9694 66.718 32.2494 62.145C31.1394 59.195 32.7614 56.946 34.0634 55.139C35.4894 53.161 35.9594 52.297 35.2314 51.056C34.7704 50.27 33.3024 49.63 31.8824 49.011C29.1024 47.799 25.2944 46.139 25.2744 41.589C25.2704 40.76 25.9394 40.086 26.7674 40.082C26.7694 40.082 26.7724 40.082 26.7744 40.082C27.6004 40.082 28.2704 40.749 28.2744 41.575C28.2854 43.995 30.0984 44.96 33.0824 46.261C34.9424 47.072 36.8654 47.91 37.8204 49.539C39.6054 52.583 37.8094 55.075 36.4984 56.894C35.2684 58.6 34.5404 59.715 35.0584 61.089C36.2634 64.292 47.5394 65.382 52.9584 65.907C54.7914 66.084 56.3744 66.237 57.4404 66.418C69.9724 68.545 71.1744 77.848 71.2194 78.243C71.3134 79.066 70.7224 79.809 69.8994 79.903C69.8414 79.909 69.7834 79.912 69.7264 79.912Z" fill="#FFE11E"/>
</svg>
