<svg width="25" height="25" viewBox="0 0 25 25" fill="#2f2f2f" xmlns="http://www.w3.org/2000/svg">
<path d="M22.4563 3.24723C22.2679 3.08454 22.0386 2.97649 21.7933 2.9348C21.5479 2.89311 21.2958 2.91936 21.0643 3.0107L3.04114 10.0913C2.76625 10.1993 2.53371 10.3934 2.37833 10.6445C2.22295 10.8957 2.15308 11.1904 2.17918 11.4846C2.20528 11.7788 2.32594 12.0566 2.52311 12.2765C2.72029 12.4964 2.98336 12.6466 3.27298 12.7045L8.00794 13.6513V19.5296C8.00766 19.8001 8.08768 20.0646 8.23787 20.2896C8.38806 20.5147 8.60165 20.69 8.8516 20.7936C9.10154 20.8971 9.37659 20.9241 9.6419 20.8712C9.9072 20.8182 10.1508 20.6878 10.3419 20.4963L13.0049 17.8332L16.9878 21.3382C17.2355 21.5582 17.5552 21.6798 17.8865 21.6802C18.0305 21.6801 18.1736 21.6574 18.3106 21.6129C18.5365 21.5413 18.7398 21.4116 18.9 21.2369C19.0602 21.0622 19.1718 20.8485 19.2237 20.6171L22.8968 4.58853C22.9528 4.34604 22.9413 4.09286 22.8637 3.85641C22.786 3.61996 22.6452 3.40926 22.4564 3.24713L22.4563 3.24723ZM3.34651 11.381C3.34019 11.3387 3.34907 11.2954 3.3716 11.259C3.39413 11.2226 3.42884 11.1953 3.46956 11.1821L18.5505 5.25738L8.45804 12.5463L3.50276 11.5552C3.46032 11.5494 3.42132 11.5287 3.39271 11.4968C3.3641 11.4649 3.34773 11.4238 3.34651 11.381ZM9.51321 19.6677C9.4859 19.695 9.4511 19.7136 9.41322 19.7212C9.37534 19.7287 9.33607 19.7248 9.30039 19.7101C9.26471 19.6953 9.23421 19.6702 9.21274 19.6381C9.19128 19.606 9.17982 19.5683 9.17981 19.5296V14.4671L12.1235 17.0576L9.51321 19.6677ZM18.0814 20.3554C18.0738 20.3884 18.0579 20.4189 18.035 20.4439C18.0121 20.4688 17.9832 20.4874 17.951 20.4978C17.9188 20.5082 17.8844 20.51 17.8513 20.5032C17.8181 20.4963 17.7874 20.4809 17.7619 20.4586L9.53206 13.2163L21.7375 4.40123L18.0814 20.3554Z" fill="#2f2f2f"/>
</svg>
