<svg width="101" height="101" viewBox="0 0 101 101" fill="none" xmlns="http://www.w3.org/2000/svg">
<path d="M94.3842 49.638H86.6252V36.544C86.6252 35.715 85.9532 35.044 85.1252 35.044H60.8242V21.977C60.8242 21.148 60.1522 20.477 59.3242 20.477H5.61816C4.78916 20.477 4.11816 21.148 4.11816 21.977V71.162C4.11816 71.99 4.78916 72.662 5.61816 72.662H18.1562C18.6762 76.529 21.9882 79.523 25.9942 79.523C30.0002 79.523 33.3122 76.529 33.8322 72.662H59.3242H69.0102C69.5302 76.529 72.8442 79.523 76.8542 79.523C80.8642 79.523 84.1782 76.529 84.6992 72.662H94.3852C95.2132 72.662 95.8852 71.99 95.8852 71.162V51.138C95.8842 50.309 95.2122 49.638 94.3842 49.638ZM25.9942 76.523C23.2832 76.523 21.0772 74.316 21.0772 71.603C21.0772 68.89 23.2832 66.683 25.9942 66.683C28.7052 66.683 30.9112 68.89 30.9112 71.603C30.9112 74.316 28.7062 76.523 25.9942 76.523ZM25.9942 63.683C22.2992 63.683 19.1972 66.232 18.3282 69.662H7.11816V23.477H57.8242V36.544V51.138V69.661H33.6612C32.7922 66.232 29.6892 63.683 25.9942 63.683ZM76.8542 76.523C74.1392 76.523 71.9312 74.316 71.9312 71.603C71.9312 68.89 74.1392 66.683 76.8542 66.683C79.5692 66.683 81.7782 68.89 81.7782 71.603C81.7782 74.316 79.5682 76.523 76.8542 76.523ZM92.8842 69.661H84.5272C83.6572 66.231 80.5522 63.682 76.8542 63.682C73.1562 63.682 70.0512 66.231 69.1822 69.661H60.8252V51.138V38.044H83.6262V51.138C83.6262 51.966 84.2982 52.638 85.1262 52.638H92.8852V69.661H92.8842Z" fill="#FFE11E"/>
</svg>
